<svg width="1160" height="279" viewBox="0 0 1160 279" fill="none" xmlns="http://www.w3.org/2000/svg">
<path d="M14.9952 36.468C11.1792 36.468 8.02317 35.208 5.52717 32.688C3.05517 30.168 1.81917 27.072 1.81917 23.4C1.81917 19.728 3.05517 16.632 5.52717 14.112C8.02317 11.592 11.1792 10.332 14.9952 10.332C17.2992 10.332 19.4112 10.884 21.3312 11.988C23.2752 13.092 24.7872 14.58 25.8672 16.452L22.9512 18.144C22.2312 16.752 21.1512 15.648 19.7112 14.832C18.2952 13.992 16.7232 13.572 14.9952 13.572C12.0912 13.572 9.71517 14.508 7.86717 16.38C6.04317 18.252 5.13117 20.592 5.13117 23.4C5.13117 26.184 6.04317 28.512 7.86717 30.384C9.71517 32.256 12.0912 33.192 14.9952 33.192C16.7232 33.192 18.2952 32.784 19.7112 31.968C21.1512 31.128 22.2312 30.024 22.9512 28.656L25.8672 30.312C24.8112 32.184 23.3112 33.684 21.3672 34.812C19.4232 35.916 17.2992 36.468 14.9952 36.468Z" fill="#38BFF2"/>
<path d="M44.6325 33.732C42.7845 35.556 40.5405 36.468 37.9005 36.468C35.2605 36.468 33.0165 35.556 31.1685 33.732C29.3445 31.908 28.4325 29.664 28.4325 27C28.4325 24.336 29.3445 22.092 31.1685 20.268C33.0165 18.444 35.2605 17.532 37.9005 17.532C40.5405 17.532 42.7845 18.444 44.6325 20.268C46.4805 22.092 47.4045 24.336 47.4045 27C47.4045 29.664 46.4805 31.908 44.6325 33.732ZM37.9005 33.408C39.7005 33.408 41.2125 32.796 42.4365 31.572C43.6605 30.348 44.2725 28.824 44.2725 27C44.2725 25.176 43.6605 23.652 42.4365 22.428C41.2125 21.204 39.7005 20.592 37.9005 20.592C36.1245 20.592 34.6245 21.204 33.4005 22.428C32.1765 23.652 31.5645 25.176 31.5645 27C31.5645 28.824 32.1765 30.348 33.4005 31.572C34.6245 32.796 36.1245 33.408 37.9005 33.408ZM79.1325 28.44C79.4445 30.048 80.1765 31.296 81.3285 32.184C82.5045 33.072 83.9445 33.516 85.6485 33.516C88.0245 33.516 89.7525 32.64 90.8325 30.888L93.4965 32.4C91.7445 35.112 89.1045 36.468 85.5765 36.468C82.7205 36.468 80.3925 35.58 78.5925 33.804C76.8165 32.004 75.9285 29.736 75.9285 27C75.9285 24.288 76.8045 22.032 78.5565 20.232C80.3085 18.432 82.5765 17.532 85.3605 17.532C88.0005 17.532 90.1485 18.468 91.8045 20.34C93.4845 22.188 94.3245 24.42 94.3245 27.036C94.3245 27.492 94.2885 27.96 94.2165 28.44H79.1325ZM85.3605 20.484C83.6805 20.484 82.2885 20.964 81.1845 21.924C80.0805 22.86 79.3965 24.12 79.1325 25.704H91.1565C90.8925 24 90.2205 22.704 89.1405 21.816C88.0605 20.928 86.8005 20.484 85.3605 20.484Z" fill="black"/>
<path d="M61.2487 10.8C64.6807 10.8 67.5247 12.024 69.7807 14.472C72.0607 16.896 73.2007 19.872 73.2007 23.4C73.2007 26.928 72.0607 29.916 69.7807 32.364C67.5247 34.788 64.6807 36 61.2487 36H51.4207V10.8H61.2487ZM61.2487 32.832C63.8167 32.832 65.9167 31.932 67.5487 30.132C69.1807 28.332 69.9967 26.088 69.9967 23.4C69.9967 20.712 69.1807 18.468 67.5487 16.668C65.9167 14.868 63.8167 13.968 61.2487 13.968H54.7687V32.832H61.2487Z" fill="#F15525"/>
<path d="M716.29 163.9H713.04V173H713.95V169.62H716.29C717.928 169.62 719.15 168.385 719.15 166.76C719.15 165.122 717.928 163.9 716.29 163.9ZM716.29 168.762H713.95V164.758H716.29C717.421 164.758 718.24 165.59 718.24 166.76C718.24 167.917 717.421 168.762 716.29 168.762ZM723.06 166.344C721.045 166.344 719.667 167.839 719.667 169.75C719.667 171.713 721.071 173.156 723.125 173.156C724.438 173.156 725.439 172.545 725.985 171.661L725.231 171.219C724.88 171.843 724.165 172.324 723.138 172.324C721.76 172.324 720.733 171.505 720.551 170.179H726.258C726.271 170.049 726.284 169.906 726.284 169.776C726.284 167.995 725.049 166.344 723.06 166.344ZM723.06 167.176C724.178 167.176 725.218 167.917 725.4 169.347H720.551C720.72 168.073 721.695 167.176 723.06 167.176ZM731.809 166.5H727.649V173H728.507V167.332H731.809V166.5ZM737.586 166.5L733.712 171.505V166.5H732.854V173H733.582L737.456 167.995V173H738.314V166.5H737.586ZM743.158 173.156C744.432 173.156 745.537 172.493 746.07 171.466L745.355 171.05C744.939 171.804 744.146 172.324 743.158 172.324C741.715 172.324 740.597 171.193 740.597 169.75C740.597 168.307 741.715 167.176 743.158 167.176C744.133 167.176 744.952 167.683 745.303 168.45L746.005 168.047C745.537 167.02 744.445 166.344 743.158 166.344C741.195 166.344 739.739 167.826 739.739 169.75C739.739 171.674 741.195 173.156 743.158 173.156ZM751.855 166.5H746.395V167.332H748.696V173H749.554V167.332H751.855V166.5ZM756.384 166.344C755.227 166.344 754.304 166.903 753.758 167.774V166.5H752.9V175.6H753.758V171.726C754.304 172.597 755.227 173.156 756.384 173.156C758.217 173.156 759.738 171.674 759.738 169.75C759.738 167.826 758.217 166.344 756.384 166.344ZM756.319 172.324C754.876 172.324 753.758 171.193 753.758 169.75C753.758 168.307 754.876 167.176 756.319 167.176C757.762 167.176 758.88 168.307 758.88 169.75C758.88 171.193 757.762 172.324 756.319 172.324ZM766.755 166.5V167.774C766.209 166.903 765.286 166.344 764.129 166.344C762.296 166.344 760.775 167.826 760.775 169.75C760.775 171.674 762.296 173.156 764.129 173.156C765.286 173.156 766.209 172.597 766.755 171.726V173H767.613V166.5H766.755ZM764.194 172.324C762.751 172.324 761.633 171.193 761.633 169.75C761.633 168.307 762.751 167.176 764.194 167.176C765.637 167.176 766.755 168.307 766.755 169.75C766.755 171.193 765.637 172.324 764.194 172.324ZM774.76 172.168V166.5H773.902V172.168H770.288V166.5H769.43V173H774.942V174.742H775.8V172.168H774.76ZM781.83 166.5L777.956 171.505V166.5H777.098V173H777.826L781.7 167.995V173H782.558V166.5H781.83ZM789.052 166.5H786.413C785.23 166.5 784.242 167.319 784.242 168.515C784.242 169.581 785.022 170.322 786.036 170.478L783.982 173H785.074L787.076 170.504H788.194V173H789.052V166.5ZM786.413 169.698C785.711 169.698 785.1 169.256 785.1 168.515C785.1 167.774 785.711 167.332 786.413 167.332H788.194V169.698H786.413Z" fill="#22253B"/>
<path d="M10.528 271.496C9.39733 272.627 8.032 273.192 6.432 273.192C4.832 273.192 3.46667 272.627 2.336 271.496C1.20533 270.365 0.64 269 0.64 267.4C0.64 265.8 1.20533 264.435 2.336 263.304C3.46667 262.173 4.832 261.608 6.432 261.608C8.032 261.608 9.39733 262.173 10.528 263.304C11.6587 264.435 12.224 265.8 12.224 267.4C12.224 269 11.6587 270.365 10.528 271.496ZM2.672 271.192C3.71733 272.227 4.97067 272.744 6.432 272.744C7.89333 272.744 9.14133 272.227 10.176 271.192C11.2213 270.147 11.744 268.883 11.744 267.4C11.744 265.917 11.2213 264.659 10.176 263.624C9.14133 262.579 7.89333 262.056 6.432 262.056C4.97067 262.056 3.71733 262.579 2.672 263.624C1.63733 264.659 1.12 265.917 1.12 267.4C1.12 268.883 1.63733 270.147 2.672 271.192ZM6.48 270.472C5.60533 270.472 4.86933 270.173 4.272 269.576C3.67467 268.979 3.376 268.253 3.376 267.4C3.376 266.547 3.67467 265.821 4.272 265.224C4.86933 264.627 5.60533 264.328 6.48 264.328C7.04533 264.328 7.55733 264.461 8.016 264.728C8.48533 264.995 8.848 265.357 9.104 265.816L8.224 266.328C8.07467 265.997 7.84 265.747 7.52 265.576C7.2 265.405 6.85333 265.32 6.48 265.32C5.86133 265.32 5.36 265.528 4.976 265.944C4.60267 266.349 4.416 266.835 4.416 267.4C4.416 267.965 4.60267 268.456 4.976 268.872C5.36 269.277 5.86133 269.48 6.48 269.48C6.864 269.48 7.216 269.395 7.536 269.224C7.856 269.043 8.09067 268.787 8.24 268.456L9.12 268.984C8.864 269.443 8.50133 269.805 8.032 270.072C7.56267 270.339 7.04533 270.472 6.48 270.472ZM17.4994 273V271.992L21.5314 267.928C22.6834 266.776 23.2594 265.789 23.2594 264.968C23.2594 264.253 23.0354 263.699 22.5874 263.304C22.15 262.899 21.622 262.696 21.0034 262.696C19.8514 262.696 19.014 263.224 18.4914 264.28L17.5474 263.72C17.8994 263.027 18.3794 262.504 18.9874 262.152C19.5954 261.789 20.2674 261.608 21.0034 261.608C21.8994 261.608 22.6834 261.912 23.3554 262.52C24.038 263.117 24.3794 263.933 24.3794 264.968C24.3794 265.619 24.198 266.243 23.8354 266.84C23.4727 267.437 22.9607 268.067 22.2994 268.728L19.0994 271.912H24.6194V273H17.4994ZM33.2694 271.624C32.5334 272.669 31.4934 273.192 30.1494 273.192C28.8054 273.192 27.76 272.669 27.0134 271.624C26.2774 270.568 25.9094 269.16 25.9094 267.4C25.9094 265.64 26.2774 264.237 27.0134 263.192C27.76 262.136 28.8054 261.608 30.1494 261.608C31.4934 261.608 32.5334 262.136 33.2694 263.192C34.016 264.237 34.3894 265.64 34.3894 267.4C34.3894 269.16 34.016 270.568 33.2694 271.624ZM27.8454 270.872C28.4 271.693 29.168 272.104 30.1494 272.104C31.1307 272.104 31.8934 271.693 32.4374 270.872C32.992 270.051 33.2694 268.893 33.2694 267.4C33.2694 265.907 32.992 264.749 32.4374 263.928C31.8934 263.107 31.1307 262.696 30.1494 262.696C29.168 262.696 28.4 263.107 27.8454 263.928C27.3014 264.749 27.0294 265.907 27.0294 267.4C27.0294 268.893 27.3014 270.051 27.8454 270.872ZM35.6713 273V271.992L39.7033 267.928C40.8553 266.776 41.4313 265.789 41.4313 264.968C41.4313 264.253 41.2073 263.699 40.7593 263.304C40.3219 262.899 39.7939 262.696 39.1753 262.696C38.0233 262.696 37.1859 263.224 36.6633 264.28L35.7193 263.72C36.0713 263.027 36.5513 262.504 37.1593 262.152C37.7673 261.789 38.4393 261.608 39.1753 261.608C40.0713 261.608 40.8553 261.912 41.5273 262.52C42.2099 263.117 42.5513 263.933 42.5513 264.968C42.5513 265.619 42.3699 266.243 42.0073 266.84C41.6446 267.437 41.1326 268.067 40.4713 268.728L37.2713 271.912H42.7913V273H35.6713ZM48.0333 266.456C48.9293 266.573 49.6653 266.92 50.2413 267.496C50.8279 268.061 51.1213 268.813 51.1213 269.752C51.1213 270.819 50.7533 271.661 50.0173 272.28C49.2919 272.888 48.4066 273.192 47.3613 273.192C46.5293 273.192 45.7879 273 45.1373 272.616C44.4866 272.232 44.0279 271.683 43.7613 270.968L44.6893 270.424C44.8706 270.979 45.1959 271.4 45.6653 271.688C46.1346 271.965 46.6999 272.104 47.3613 272.104C48.1293 272.104 48.7586 271.901 49.2493 271.496C49.7506 271.08 50.0013 270.499 50.0013 269.752C50.0013 269.005 49.7506 268.429 49.2493 268.024C48.7586 267.608 48.1293 267.4 47.3613 267.4V267.384L47.3453 267.4H47.0413L46.5613 266.664L49.3453 262.856H44.0813V261.8H50.6413V262.856L48.0333 266.456ZM57.0456 268.568V267.544H66.6456V268.568H57.0456ZM79.4099 267.192C79.9539 267.427 80.3859 267.784 80.7059 268.264C81.0365 268.733 81.2019 269.272 81.2019 269.88C81.2019 270.744 80.8979 271.48 80.2899 272.088C79.6819 272.696 78.9459 273 78.0819 273H73.2019V261.8H77.7139C78.5459 261.8 79.2552 262.099 79.8419 262.696C80.4285 263.283 80.7219 263.987 80.7219 264.808C80.7219 265.853 80.2845 266.648 79.4099 267.192ZM77.7139 262.856H74.3219V266.76H77.7139C78.2365 266.76 78.6792 266.573 79.0419 266.2C79.4152 265.816 79.6019 265.352 79.6019 264.808C79.6019 264.275 79.4152 263.816 79.0419 263.432C78.6792 263.048 78.2365 262.856 77.7139 262.856ZM78.0819 271.944C78.6365 271.944 79.1059 271.747 79.4899 271.352C79.8845 270.947 80.0819 270.456 80.0819 269.88C80.0819 269.315 79.8845 268.829 79.4899 268.424C79.1059 268.019 78.6365 267.816 78.0819 267.816H74.3219V271.944H78.0819ZM86.6918 273.192C85.4864 273.192 84.4838 272.792 83.6838 271.992C82.8838 271.181 82.4838 270.184 82.4838 269C82.4838 267.816 82.8838 266.824 83.6838 266.024C84.4838 265.213 85.4864 264.808 86.6918 264.808C87.4811 264.808 88.1904 265 88.8198 265.384C89.4491 265.757 89.9078 266.264 90.1958 266.904L89.3318 267.4C89.1184 266.92 88.7718 266.541 88.2918 266.264C87.8224 265.976 87.2891 265.832 86.6918 265.832C85.8064 265.832 85.0598 266.141 84.4518 266.76C83.8438 267.368 83.5398 268.115 83.5398 269C83.5398 269.885 83.8438 270.637 84.4518 271.256C85.0598 271.864 85.8064 272.168 86.6918 272.168C87.2891 272.168 87.8224 272.029 88.2918 271.752C88.7611 271.464 89.1291 271.08 89.3958 270.6L90.2758 271.112C89.9451 271.752 89.4598 272.259 88.8198 272.632C88.1798 273.005 87.4704 273.192 86.6918 273.192ZM95.4098 264.808C96.5938 264.808 97.5484 265.229 98.2738 266.072C99.0098 266.904 99.3778 267.891 99.3778 269.032C99.3778 269.149 99.3671 269.315 99.3458 269.528H92.3218C92.4284 270.339 92.7698 270.984 93.3458 271.464C93.9324 271.933 94.6524 272.168 95.5058 272.168C96.1138 272.168 96.6364 272.045 97.0738 271.8C97.5218 271.544 97.8578 271.213 98.0818 270.808L99.0098 271.352C98.6578 271.917 98.1778 272.365 97.5698 272.696C96.9618 273.027 96.2684 273.192 95.4898 273.192C94.2311 273.192 93.2071 272.797 92.4178 272.008C91.6284 271.219 91.2338 270.216 91.2338 269C91.2338 267.805 91.6231 266.808 92.4018 266.008C93.1804 265.208 94.1831 264.808 95.4098 264.808ZM95.4098 265.832C94.5778 265.832 93.8791 266.083 93.3138 266.584C92.7591 267.075 92.4284 267.715 92.3218 268.504H98.2898C98.1831 267.661 97.8578 267.005 97.3138 266.536C96.7698 266.067 96.1351 265.832 95.4098 265.832ZM111.778 265V273H110.722V266.024H106.114V273H105.058V265H111.778ZM118.299 264.808C119.44 264.808 120.411 265.213 121.211 266.024C122.021 266.835 122.427 267.827 122.427 269C122.427 270.173 122.021 271.165 121.211 271.976C120.411 272.787 119.44 273.192 118.299 273.192C116.88 273.192 115.803 272.605 115.067 271.432V276.2H114.011V265H115.067V266.568C115.803 265.395 116.88 264.808 118.299 264.808ZM115.979 271.256C116.587 271.864 117.333 272.168 118.219 272.168C119.104 272.168 119.851 271.864 120.459 271.256C121.067 270.637 121.371 269.885 121.371 269C121.371 268.115 121.067 267.368 120.459 266.76C119.851 266.141 119.104 265.832 118.219 265.832C117.333 265.832 116.587 266.141 115.979 266.76C115.371 267.368 115.067 268.115 115.067 269C115.067 269.885 115.371 270.637 115.979 271.256ZM131.062 265H132.119V273H131.062V271.432C130.327 272.605 129.249 273.192 127.831 273.192C126.689 273.192 125.713 272.787 124.903 271.976C124.103 271.165 123.703 270.173 123.703 269C123.703 267.827 124.103 266.835 124.903 266.024C125.713 265.213 126.689 264.808 127.831 264.808C129.249 264.808 130.327 265.395 131.062 266.568V265ZM125.671 271.256C126.279 271.864 127.025 272.168 127.911 272.168C128.796 272.168 129.543 271.864 130.151 271.256C130.759 270.637 131.062 269.885 131.062 269C131.062 268.115 130.759 267.368 130.151 266.76C129.543 266.141 128.796 265.832 127.911 265.832C127.025 265.832 126.279 266.141 125.671 266.76C125.063 267.368 124.759 268.115 124.759 269C124.759 269.885 125.063 270.637 125.671 271.256ZM139.442 268.888C140.317 269.208 140.754 269.832 140.754 270.76C140.754 271.411 140.536 271.949 140.098 272.376C139.672 272.792 139.053 273 138.242 273H134.354V265H137.922C138.701 265 139.304 265.203 139.73 265.608C140.157 266.003 140.37 266.515 140.37 267.144C140.37 267.944 140.061 268.525 139.442 268.888ZM137.922 266.024H135.41V268.456H137.922C138.85 268.456 139.314 268.04 139.314 267.208C139.314 266.835 139.192 266.547 138.946 266.344C138.712 266.131 138.37 266.024 137.922 266.024ZM138.242 271.976C138.712 271.976 139.069 271.864 139.314 271.64C139.57 271.416 139.698 271.101 139.698 270.696C139.698 270.323 139.57 270.029 139.314 269.816C139.069 269.592 138.712 269.48 138.242 269.48H135.41V271.976H138.242ZM149.234 265H150.29V273H149.234V271.432C148.498 272.605 147.421 273.192 146.002 273.192C144.861 273.192 143.885 272.787 143.074 271.976C142.274 271.165 141.874 270.173 141.874 269C141.874 267.827 142.274 266.835 143.074 266.024C143.885 265.213 144.861 264.808 146.002 264.808C147.421 264.808 148.498 265.395 149.234 266.568V265ZM143.842 271.256C144.45 271.864 145.197 272.168 146.082 272.168C146.968 272.168 147.714 271.864 148.322 271.256C148.93 270.637 149.234 269.885 149.234 269C149.234 268.115 148.93 267.368 148.322 266.76C147.714 266.141 146.968 265.832 146.082 265.832C145.197 265.832 144.45 266.141 143.842 266.76C143.234 267.368 142.93 268.115 142.93 269C142.93 269.885 143.234 270.637 143.842 271.256ZM160.654 268.888C161.582 269.24 162.046 269.88 162.046 270.808C162.046 271.469 161.785 272.035 161.262 272.504C160.75 272.963 160.014 273.192 159.054 273.192C157.444 273.192 156.388 272.552 155.886 271.272L156.782 270.744C157.113 271.693 157.87 272.168 159.054 272.168C159.673 272.168 160.148 272.035 160.478 271.768C160.82 271.501 160.99 271.16 160.99 270.744C160.99 270.371 160.852 270.067 160.574 269.832C160.297 269.597 159.924 269.48 159.454 269.48H158.286V268.456H159.134C159.593 268.456 159.95 268.344 160.206 268.12C160.473 267.885 160.606 267.565 160.606 267.16C160.606 266.776 160.452 266.461 160.142 266.216C159.833 265.96 159.417 265.832 158.894 265.832C157.892 265.832 157.225 266.232 156.894 267.032L156.014 266.52C156.548 265.379 157.508 264.808 158.894 264.808C159.737 264.808 160.409 265.032 160.91 265.48C161.412 265.917 161.662 266.456 161.662 267.096C161.662 267.917 161.326 268.515 160.654 268.888ZM170.531 265H171.587V273H170.531V271.432C169.795 272.605 168.718 273.192 167.299 273.192C166.158 273.192 165.182 272.787 164.371 271.976C163.571 271.165 163.171 270.173 163.171 269C163.171 267.827 163.571 266.835 164.371 266.024C165.182 265.213 166.158 264.808 167.299 264.808C168.718 264.808 169.795 265.395 170.531 266.568V265ZM165.139 271.256C165.747 271.864 166.494 272.168 167.379 272.168C168.265 272.168 169.011 271.864 169.619 271.256C170.227 270.637 170.531 269.885 170.531 269C170.531 268.115 170.227 267.368 169.619 266.76C169.011 266.141 168.265 265.832 167.379 265.832C166.494 265.832 165.747 266.141 165.139 266.76C164.531 267.368 164.227 268.115 164.227 269C164.227 269.885 164.531 270.637 165.139 271.256ZM184.543 271.976H185.663V275.144H184.607V273H173.823V265H174.879V271.976H178.655V265H179.711V271.976H183.487V265H184.543V271.976ZM193.085 265H193.981V273H192.925V266.84L188.157 273H187.261V265H188.317V271.16L193.085 265ZM206.934 271.976H208.054V275.144H206.998V273H196.214V265H197.27V271.976H201.046V265H202.102V271.976H205.878V265H206.934V271.976ZM213.035 264.808C214.219 264.808 215.173 265.229 215.899 266.072C216.635 266.904 217.003 267.891 217.003 269.032C217.003 269.149 216.992 269.315 216.971 269.528H209.947C210.053 270.339 210.395 270.984 210.971 271.464C211.557 271.933 212.277 272.168 213.131 272.168C213.739 272.168 214.261 272.045 214.699 271.8C215.147 271.544 215.483 271.213 215.707 270.808L216.635 271.352C216.283 271.917 215.803 272.365 215.195 272.696C214.587 273.027 213.893 273.192 213.115 273.192C211.856 273.192 210.832 272.797 210.043 272.008C209.253 271.219 208.859 270.216 208.859 269C208.859 267.805 209.248 266.808 210.027 266.008C210.805 265.208 211.808 264.808 213.035 264.808ZM213.035 265.832C212.203 265.832 211.504 266.083 210.939 266.584C210.384 267.075 210.053 267.715 209.947 268.504H215.915C215.808 267.661 215.483 267.005 214.939 266.536C214.395 266.067 213.76 265.832 213.035 265.832ZM224.347 265H225.403V273H224.347V269.512H219.739V273H218.683V265H219.739V268.488H224.347V265ZM230.884 268.04C231.63 268.04 232.26 268.275 232.772 268.744C233.294 269.203 233.556 269.795 233.556 270.52C233.556 271.245 233.294 271.843 232.772 272.312C232.26 272.771 231.63 273 230.884 273H227.636V265H228.692V268.04H230.884ZM234.676 265H235.732V273H234.676V265ZM230.884 271.976C231.332 271.976 231.71 271.843 232.02 271.576C232.34 271.309 232.5 270.957 232.5 270.52C232.5 270.083 232.34 269.731 232.02 269.464C231.71 269.197 231.332 269.064 230.884 269.064H228.692V271.976H230.884Z" fill="#8E8E8E"/>
<path d="M630.28 261.8H622.28V273H623.4V262.856H629.16V273H630.28V261.8ZM636.411 273.192C638.747 273.192 640.619 271.368 640.619 269C640.619 266.632 638.747 264.808 636.411 264.808C634.075 264.808 632.203 266.632 632.203 269C632.203 271.368 634.075 273.192 636.411 273.192ZM636.411 272.168C634.635 272.168 633.259 270.776 633.259 269C633.259 267.224 634.635 265.832 636.411 265.832C638.187 265.832 639.562 267.224 639.562 269C639.562 270.776 638.187 272.168 636.411 272.168ZM648.633 265H642.905V269.592C642.905 271.624 642.249 272.12 641.113 272.008V273C642.713 273.112 643.961 272.44 643.961 269.592V266.024H647.577V273H648.633V265ZM654.118 268.04H651.926V265H650.87V273H654.118C655.574 273 656.79 271.992 656.79 270.52C656.79 269.048 655.574 268.04 654.118 268.04ZM654.118 271.976H651.926V269.064H654.118C654.982 269.064 655.734 269.608 655.734 270.52C655.734 271.432 654.982 271.976 654.118 271.976ZM662.357 268.888C663.029 268.52 663.365 267.864 663.365 267.096C663.365 265.88 662.357 264.808 660.597 264.808C659.125 264.808 658.181 265.528 657.717 266.52L658.597 267.032C658.933 266.216 659.669 265.832 660.597 265.832C661.669 265.832 662.309 266.424 662.309 267.16C662.309 267.96 661.765 268.456 660.837 268.456H659.989V269.48H661.157C662.101 269.48 662.693 270.008 662.693 270.744C662.693 271.544 662.037 272.168 660.757 272.168C659.445 272.168 658.773 271.56 658.485 270.744L657.589 271.272C657.989 272.296 658.917 273.192 660.757 273.192C662.773 273.192 663.749 272.04 663.749 270.808C663.749 269.928 663.253 269.224 662.357 268.888ZM669.082 273.192C671.418 273.192 673.29 271.368 673.29 269C673.29 266.632 671.418 264.808 669.082 264.808C666.746 264.808 664.874 266.632 664.874 269C664.874 271.368 666.746 273.192 669.082 273.192ZM669.082 272.168C667.306 272.168 665.93 270.776 665.93 269C665.93 267.224 667.306 265.832 669.082 265.832C670.858 265.832 672.234 267.224 672.234 269C672.234 270.776 670.858 272.168 669.082 272.168ZM680.146 268.888C680.77 268.52 681.074 267.912 681.074 267.144C681.074 265.928 680.226 265 678.626 265H675.058V273H678.946C680.642 273 681.458 271.992 681.458 270.76C681.458 269.896 681.01 269.208 680.146 268.888ZM678.626 266.024C679.538 266.024 680.018 266.472 680.018 267.208C680.018 268.008 679.554 268.456 678.626 268.456H676.114V266.024H678.626ZM678.946 271.976H676.114V269.48H678.946C679.89 269.48 680.402 269.96 680.402 270.696C680.402 271.496 679.906 271.976 678.946 271.976ZM689.938 265V266.568C689.266 265.496 688.13 264.808 686.706 264.808C684.45 264.808 682.578 266.632 682.578 269C682.578 271.368 684.45 273.192 686.706 273.192C688.13 273.192 689.266 272.504 689.938 271.432V273H690.994V265H689.938ZM686.786 272.168C685.01 272.168 683.634 270.776 683.634 269C683.634 267.224 685.01 265.832 686.786 265.832C688.562 265.832 689.938 267.224 689.938 269C689.938 270.776 688.562 272.168 686.786 272.168ZM698.989 265H692.269V266.024H695.101V273H696.157V266.024H698.989V265ZM703.66 264.808C701.18 264.808 699.484 266.648 699.484 269C699.484 271.416 701.212 273.192 703.74 273.192C705.356 273.192 706.588 272.44 707.26 271.352L706.332 270.808C705.9 271.576 705.02 272.168 703.756 272.168C702.06 272.168 700.796 271.16 700.572 269.528H707.596C707.612 269.368 707.628 269.192 707.628 269.032C707.628 266.84 706.108 264.808 703.66 264.808ZM703.66 265.832C705.036 265.832 706.316 266.744 706.54 268.504H700.572C700.78 266.936 701.98 265.832 703.66 265.832ZM715.555 265H709.827V269.592C709.827 271.624 709.171 272.12 708.035 272.008V273C709.635 273.112 710.883 272.44 710.883 269.592V266.024H714.499V273H715.555V265ZM721.04 268.04H718.848V265H717.792V273H721.04C722.496 273 723.712 271.992 723.712 270.52C723.712 269.048 722.496 268.04 721.04 268.04ZM721.04 271.976H718.848V269.064H721.04C721.904 269.064 722.656 269.608 722.656 270.52C722.656 271.432 721.904 271.976 721.04 271.976ZM728.957 273.192C730.525 273.192 731.885 272.376 732.541 271.112L731.661 270.6C731.149 271.528 730.173 272.168 728.957 272.168C727.181 272.168 725.805 270.776 725.805 269C725.805 267.224 727.181 265.832 728.957 265.832C730.157 265.832 731.165 266.456 731.597 267.4L732.461 266.904C731.885 265.64 730.541 264.808 728.957 264.808C726.541 264.808 724.749 266.632 724.749 269C724.749 271.368 726.541 273.192 728.957 273.192ZM740.522 273L736.234 268.84L740.362 265H738.922L735.114 268.536V265H734.058V273H735.114V269.144L739.114 273H740.522ZM744.895 273.192C747.231 273.192 749.103 271.368 749.103 269C749.103 266.632 747.231 264.808 744.895 264.808C742.559 264.808 740.687 266.632 740.687 269C740.687 271.368 742.559 273.192 744.895 273.192ZM744.895 272.168C743.119 272.168 741.743 270.776 741.743 269C741.743 267.224 743.119 265.832 744.895 265.832C746.671 265.832 748.047 267.224 748.047 269C748.047 270.776 746.671 272.168 744.895 272.168ZM754.566 264.808C752.086 264.808 750.39 266.648 750.39 269C750.39 271.416 752.118 273.192 754.646 273.192C756.262 273.192 757.494 272.44 758.166 271.352L757.238 270.808C756.806 271.576 755.926 272.168 754.662 272.168C752.966 272.168 751.702 271.16 751.478 269.528H758.502C758.518 269.368 758.534 269.192 758.534 269.032C758.534 266.84 757.014 264.808 754.566 264.808ZM754.566 265.832C755.942 265.832 757.222 266.744 757.446 268.504H751.478C751.686 266.936 752.886 265.832 754.566 265.832ZM767.942 273.192C769.51 273.192 770.87 272.376 771.526 271.112L770.646 270.6C770.134 271.528 769.158 272.168 767.942 272.168C766.166 272.168 764.79 270.776 764.79 269C764.79 267.224 766.166 265.832 767.942 265.832C769.142 265.832 770.15 266.456 770.582 267.4L771.446 266.904C770.87 265.64 769.526 264.808 767.942 264.808C765.526 264.808 763.734 266.632 763.734 269C763.734 271.368 765.526 273.192 767.942 273.192ZM776.692 273.192C779.028 273.192 780.9 271.368 780.9 269C780.9 266.632 779.028 264.808 776.692 264.808C774.356 264.808 772.484 266.632 772.484 269C772.484 271.368 774.356 273.192 776.692 273.192ZM776.692 272.168C774.916 272.168 773.54 270.776 773.54 269C773.54 267.224 774.916 265.832 776.692 265.832C778.468 265.832 779.844 267.224 779.844 269C779.844 270.776 778.468 272.168 776.692 272.168ZM787.787 265H782.667V273H783.723V266.024H787.787V265ZM795.149 265H789.421V269.592C789.421 271.624 788.765 272.12 787.629 272.008V273C789.229 273.112 790.477 272.44 790.477 269.592V266.024H794.093V273H795.149V265ZM804.266 265V266.568C803.594 265.496 802.458 264.808 801.034 264.808C798.778 264.808 796.906 266.632 796.906 269C796.906 271.368 798.778 273.192 801.034 273.192C802.458 273.192 803.594 272.504 804.266 271.432V273H805.322V265H804.266ZM801.114 272.168C799.338 272.168 797.962 270.776 797.962 269C797.962 267.224 799.338 265.832 801.114 265.832C802.89 265.832 804.266 267.224 804.266 269C804.266 270.776 802.89 272.168 801.114 272.168ZM817.222 265V271.976H813.446V265H812.39V271.976H808.614V265H807.558V273H818.278V265H817.222ZM824.207 264.808C821.727 264.808 820.031 266.648 820.031 269C820.031 271.416 821.759 273.192 824.287 273.192C825.903 273.192 827.135 272.44 827.807 271.352L826.879 270.808C826.447 271.576 825.567 272.168 824.303 272.168C822.607 272.168 821.343 271.16 821.119 269.528H828.143C828.159 269.368 828.175 269.192 828.175 269.032C828.175 266.84 826.655 264.808 824.207 264.808ZM824.207 265.832C825.583 265.832 826.863 266.744 827.087 268.504H821.119C821.327 266.936 822.527 265.832 824.207 265.832ZM835.518 265V268.488H830.91V265H829.854V273H830.91V269.512H835.518V273H836.574V265H835.518ZM844.632 265L839.864 271.16V265H838.808V273H839.704L844.472 266.84V273H845.528V265H844.632ZM851.457 264.808C848.977 264.808 847.281 266.648 847.281 269C847.281 271.416 849.009 273.192 851.537 273.192C853.153 273.192 854.385 272.44 855.057 271.352L854.129 270.808C853.697 271.576 852.817 272.168 851.553 272.168C849.857 272.168 848.593 271.16 848.369 269.528H855.393C855.409 269.368 855.425 269.192 855.425 269.032C855.425 266.84 853.905 264.808 851.457 264.808ZM851.457 265.832C852.833 265.832 854.113 266.744 854.337 268.504H848.369C848.577 266.936 849.777 265.832 851.457 265.832Z" fill="#8E8E8E"/>
<path d="M931.28 261.8H923.28V273H924.4V262.856H930.16V273H931.28V261.8ZM937.411 273.192C939.747 273.192 941.619 271.368 941.619 269C941.619 266.632 939.747 264.808 937.411 264.808C935.075 264.808 933.203 266.632 933.203 269C933.203 271.368 935.075 273.192 937.411 273.192ZM937.411 272.168C935.635 272.168 934.259 270.776 934.259 269C934.259 267.224 935.635 265.832 937.411 265.832C939.187 265.832 940.562 267.224 940.562 269C940.562 270.776 939.187 272.168 937.411 272.168ZM949.633 265H943.905V269.592C943.905 271.624 943.249 272.12 942.113 272.008V273C943.713 273.112 944.961 272.44 944.961 269.592V266.024H948.577V273H949.633V265ZM957.694 265L952.926 271.16V265H951.87V273H952.766L957.534 266.84V273H958.59V265H957.694ZM966.583 265H959.863V266.024H962.695V273H963.751V266.024H966.583V265ZM973.694 265L968.926 271.16V265H967.87V273H968.766L973.534 266.84V273H974.59V265H973.694ZM983.287 273L978.999 268.84L983.127 265H981.687L977.879 268.536V265H976.823V273H977.879V269.144L981.879 273H983.287ZM990.812 265V266.568C990.141 265.496 989.005 264.808 987.581 264.808C985.325 264.808 983.453 266.632 983.453 269C983.453 271.368 985.325 273.192 987.581 273.192C989.005 273.192 990.141 272.504 990.812 271.432V273H991.869V265H990.812ZM987.661 272.168C985.885 272.168 984.509 270.776 984.509 269C984.509 267.224 985.885 265.832 987.661 265.832C989.437 265.832 990.812 267.224 990.812 269C990.812 270.776 989.437 272.168 987.661 272.168ZM1004.57 273L1000.28 268.84L1004.41 265H1002.97L999.16 268.536V265H998.104V273H999.16V269.144L1003.16 273H1004.57ZM1008.94 273.192C1011.28 273.192 1013.15 271.368 1013.15 269C1013.15 266.632 1011.28 264.808 1008.94 264.808C1006.61 264.808 1004.73 266.632 1004.73 269C1004.73 271.368 1006.61 273.192 1008.94 273.192ZM1008.94 272.168C1007.17 272.168 1005.79 270.776 1005.79 269C1005.79 267.224 1007.17 265.832 1008.94 265.832C1010.72 265.832 1012.09 267.224 1012.09 269C1012.09 270.776 1010.72 272.168 1008.94 272.168ZM1020.58 265V268.488H1015.97V265H1014.92V273H1015.97V269.512H1020.58V273H1021.64V265H1020.58ZM1032.83 269C1032.83 266.776 1031.18 265.048 1028.64 264.824V261.8H1027.58V264.824C1025.04 265.048 1023.39 266.776 1023.39 269C1023.39 271.224 1025.04 272.952 1027.58 273.176V276.2H1028.64V273.176C1031.18 272.952 1032.83 271.224 1032.83 269ZM1024.45 269C1024.45 267.368 1025.61 266.056 1027.58 265.864V272.136C1025.61 271.944 1024.45 270.632 1024.45 269ZM1028.64 272.136V265.864C1030.61 266.056 1031.77 267.368 1031.77 269C1031.77 270.632 1030.61 271.944 1028.64 272.136ZM1040.41 265L1035.64 271.16V265H1034.59V273H1035.48L1040.25 266.84V273H1041.31V265H1040.41ZM1050.26 271.976V265H1044.53V268.952C1044.53 270.52 1044.23 271.304 1043.72 271.976H1042.74V275.144H1043.8V273H1050.33V275.144H1051.38V271.976H1050.26ZM1045 271.976C1045.38 271.208 1045.59 270.264 1045.59 268.952V266.024H1049.21V271.976H1045ZM1056.36 264.808C1053.88 264.808 1052.19 266.648 1052.19 269C1052.19 271.416 1053.91 273.192 1056.44 273.192C1058.06 273.192 1059.29 272.44 1059.96 271.352L1059.03 270.808C1058.6 271.576 1057.72 272.168 1056.46 272.168C1054.76 272.168 1053.5 271.16 1053.27 269.528H1060.3C1060.31 269.368 1060.33 269.192 1060.33 269.032C1060.33 266.84 1058.81 264.808 1056.36 264.808ZM1056.36 265.832C1057.74 265.832 1059.02 266.744 1059.24 268.504H1053.27C1053.48 266.936 1054.68 265.832 1056.36 265.832ZM1067.67 265V268.488H1063.07V265H1062.01V273H1063.07V269.512H1067.67V273H1068.73V265H1067.67ZM1077.52 271.976V265H1076.47V271.976H1072.02V265H1070.96V273H1077.75V275.144H1078.8V271.976H1077.52ZM1086.23 265L1081.46 271.16V265H1080.4V273H1081.3L1086.07 266.84V273H1087.12V265H1086.23ZM1096.23 265V266.568C1095.56 265.496 1094.43 264.808 1093 264.808C1090.75 264.808 1088.87 266.632 1088.87 269C1088.87 271.368 1090.75 273.192 1093 273.192C1094.43 273.192 1095.56 272.504 1096.23 271.432V273H1097.29V265H1096.23ZM1093.08 272.168C1091.31 272.168 1089.93 270.776 1089.93 269C1089.93 267.224 1091.31 265.832 1093.08 265.832C1094.86 265.832 1096.23 267.224 1096.23 269C1096.23 270.776 1094.86 272.168 1093.08 272.168ZM1106.09 265H1100.36V269.592C1100.36 271.624 1099.7 272.12 1098.57 272.008V273C1100.17 273.112 1101.41 272.44 1101.41 269.592V266.024H1105.03V273H1106.09V265ZM1111.57 268.04H1109.38V265H1108.32V273H1111.57C1113.03 273 1114.24 271.992 1114.24 270.52C1114.24 269.048 1113.03 268.04 1111.57 268.04ZM1111.57 271.976H1109.38V269.064H1111.57C1112.44 269.064 1113.19 269.608 1113.19 270.52C1113.19 271.432 1112.44 271.976 1111.57 271.976ZM1121.5 265V268.488H1116.89V265H1115.84V273H1116.89V269.512H1121.5V273H1122.56V265H1121.5ZM1128.52 273.192C1130.86 273.192 1132.73 271.368 1132.73 269C1132.73 266.632 1130.86 264.808 1128.52 264.808C1126.18 264.808 1124.31 266.632 1124.31 269C1124.31 271.368 1126.18 273.192 1128.52 273.192ZM1128.52 272.168C1126.74 272.168 1125.37 270.776 1125.37 269C1125.37 267.224 1126.74 265.832 1128.52 265.832C1130.3 265.832 1131.67 267.224 1131.67 269C1131.67 270.776 1130.3 272.168 1128.52 272.168ZM1138.22 273.192C1139.79 273.192 1141.15 272.376 1141.81 271.112L1140.93 270.6C1140.42 271.528 1139.44 272.168 1138.22 272.168C1136.45 272.168 1135.07 270.776 1135.07 269C1135.07 267.224 1136.45 265.832 1138.22 265.832C1139.42 265.832 1140.43 266.456 1140.86 267.4L1141.73 266.904C1141.15 265.64 1139.81 264.808 1138.22 264.808C1135.81 264.808 1134.02 266.632 1134.02 269C1134.02 271.368 1135.81 273.192 1138.22 273.192ZM1148.93 265H1142.21V266.024H1145.04V273H1146.09V266.024H1148.93V265ZM1156.04 265L1151.27 271.16V265H1150.21V273H1151.11L1155.88 266.84V273H1156.93V265H1156.04Z" fill="#8E8E8E"/>
<path d="M1001.19 33.08C1001.04 33.2293 1000.86 33.304 1000.65 33.304C1000.43 33.304 1000.25 33.2293 1000.1 33.08C999.955 32.9307 999.88 32.7493 999.88 32.536C999.88 32.3227 999.955 32.1413 1000.1 31.992C1000.25 31.8427 1000.43 31.768 1000.65 31.768C1000.86 31.768 1001.04 31.8427 1001.19 31.992C1001.34 32.1413 1001.42 32.3227 1001.42 32.536C1001.42 32.7493 1001.34 32.9307 1001.19 33.08ZM1000.12 43V35H1001.18V43H1000.12ZM1007.16 34.808C1008.13 34.808 1008.89 35.1067 1009.45 35.704C1010.01 36.2907 1010.3 37.0853 1010.3 38.088V43H1009.24V38.088C1009.24 37.3733 1009.05 36.8187 1008.66 36.424C1008.29 36.0293 1007.76 35.832 1007.06 35.832C1006.3 35.832 1005.67 36.0773 1005.19 36.568C1004.71 37.048 1004.47 37.7947 1004.47 38.808V43H1003.42V35H1004.47V36.248C1005.07 35.288 1005.97 34.808 1007.16 34.808ZM1016.34 32.632C1015.56 32.568 1014.98 32.7013 1014.59 33.032C1014.22 33.3627 1014.03 33.912 1014.03 34.68V35H1016.34V36.024H1014.03V43H1012.98V36.024H1011.62V35H1012.98V34.68C1012.98 33.6347 1013.27 32.8453 1013.84 32.312C1014.43 31.768 1015.26 31.5333 1016.34 31.608V32.632ZM1023.68 41.992C1022.87 42.792 1021.88 43.192 1020.71 43.192C1019.53 43.192 1018.54 42.792 1017.72 41.992C1016.9 41.1813 1016.5 40.184 1016.5 39C1016.5 37.816 1016.9 36.824 1017.72 36.024C1018.54 35.2133 1019.53 34.808 1020.71 34.808C1021.88 34.808 1022.87 35.2133 1023.68 36.024C1024.5 36.824 1024.92 37.816 1024.92 39C1024.92 40.184 1024.5 41.1813 1023.68 41.992ZM1018.47 41.256C1019.08 41.864 1019.82 42.168 1020.71 42.168C1021.59 42.168 1022.34 41.864 1022.95 41.256C1023.56 40.6373 1023.86 39.8853 1023.86 39C1023.86 38.1147 1023.56 37.368 1022.95 36.76C1022.34 36.1413 1021.59 35.832 1020.71 35.832C1019.82 35.832 1019.08 36.1413 1018.47 36.76C1017.86 37.368 1017.56 38.1147 1017.56 39C1017.56 39.8853 1017.86 40.6373 1018.47 41.256ZM1032.03 33.208C1033.16 33.208 1034.16 33.4853 1035.03 34.04C1035.91 34.584 1036.56 35.2667 1036.99 36.088C1037.41 36.9093 1037.63 37.7733 1037.63 38.68C1037.63 39.8107 1037.4 40.6587 1036.94 41.224C1036.48 41.7893 1035.94 42.072 1035.32 42.072C1034.87 42.072 1034.49 41.96 1034.17 41.736C1033.85 41.5013 1033.64 41.1547 1033.53 40.696C1033.07 41.272 1032.48 41.56 1031.75 41.56C1031.02 41.56 1030.4 41.3147 1029.9 40.824C1029.41 40.3333 1029.16 39.7253 1029.16 39C1029.16 38.2747 1029.41 37.6667 1029.9 37.176C1030.4 36.6853 1031.02 36.44 1031.75 36.44C1032.44 36.44 1033 36.696 1033.45 37.208V36.552H1034.44V40.008C1034.44 41.032 1034.79 41.544 1035.48 41.544C1035.95 41.544 1036.35 41.3147 1036.67 40.856C1036.99 40.3867 1037.15 39.6613 1037.15 38.68C1037.15 37.2507 1036.65 36.056 1035.66 35.096C1034.68 34.136 1033.47 33.656 1032.03 33.656C1030.54 33.656 1029.28 34.168 1028.23 35.192C1027.2 36.216 1026.68 37.4853 1026.68 39C1026.68 40.5467 1027.22 41.8267 1028.28 42.84C1029.35 43.8427 1030.69 44.344 1032.31 44.344C1033.39 44.344 1034.32 44.1893 1035.1 43.88V44.36C1034.3 44.648 1033.37 44.792 1032.31 44.792C1030.57 44.792 1029.11 44.2427 1027.95 43.144C1026.78 42.056 1026.2 40.6747 1026.2 39C1026.2 37.3893 1026.76 36.024 1027.87 34.904C1028.99 33.7733 1030.37 33.208 1032.03 33.208ZM1030.63 40.168C1030.97 40.456 1031.36 40.6 1031.82 40.6C1032.28 40.6 1032.66 40.456 1032.97 40.168C1033.29 39.8693 1033.45 39.48 1033.45 39C1033.45 38.52 1033.29 38.136 1032.97 37.848C1032.66 37.5493 1032.28 37.4 1031.82 37.4C1031.36 37.4 1030.97 37.5493 1030.63 37.848C1030.31 38.136 1030.15 38.52 1030.15 39C1030.15 39.48 1030.31 39.8693 1030.63 40.168ZM1043.11 43.192C1041.91 43.192 1040.91 42.792 1040.11 41.992C1039.31 41.1813 1038.91 40.184 1038.91 39C1038.91 37.816 1039.31 36.824 1040.11 36.024C1040.91 35.2133 1041.91 34.808 1043.11 34.808C1043.9 34.808 1044.61 35 1045.24 35.384C1045.87 35.7573 1046.33 36.264 1046.62 36.904L1045.75 37.4C1045.54 36.92 1045.19 36.5413 1044.71 36.264C1044.24 35.976 1043.71 35.832 1043.11 35.832C1042.23 35.832 1041.48 36.1413 1040.87 36.76C1040.27 37.368 1039.96 38.1147 1039.96 39C1039.96 39.8853 1040.27 40.6373 1040.87 41.256C1041.48 41.864 1042.23 42.168 1043.11 42.168C1043.71 42.168 1044.24 42.0293 1044.71 41.752C1045.18 41.464 1045.55 41.08 1045.82 40.6L1046.7 41.112C1046.37 41.752 1045.88 42.2587 1045.24 42.632C1044.6 43.0053 1043.89 43.192 1043.11 43.192ZM1054.84 41.992C1054.03 42.792 1053.04 43.192 1051.86 43.192C1050.69 43.192 1049.69 42.792 1048.87 41.992C1048.06 41.1813 1047.66 40.184 1047.66 39C1047.66 37.816 1048.06 36.824 1048.87 36.024C1049.69 35.2133 1050.69 34.808 1051.86 34.808C1053.04 34.808 1054.03 35.2133 1054.84 36.024C1055.66 36.824 1056.07 37.816 1056.07 39C1056.07 40.184 1055.66 41.1813 1054.84 41.992ZM1049.62 41.256C1050.23 41.864 1050.98 42.168 1051.86 42.168C1052.75 42.168 1053.5 41.864 1054.1 41.256C1054.71 40.6373 1055.02 39.8853 1055.02 39C1055.02 38.1147 1054.71 37.368 1054.1 36.76C1053.5 36.1413 1052.75 35.832 1051.86 35.832C1050.98 35.832 1050.23 36.1413 1049.62 36.76C1049.02 37.368 1048.71 38.1147 1048.71 39C1048.71 39.8853 1049.02 40.6373 1049.62 41.256ZM1064.72 31.8H1065.77V43H1064.72V41.432C1063.98 42.6053 1062.91 43.192 1061.49 43.192C1060.35 43.192 1059.37 42.7867 1058.56 41.976C1057.76 41.1653 1057.36 40.1733 1057.36 39C1057.36 37.8267 1057.76 36.8347 1058.56 36.024C1059.37 35.2133 1060.35 34.808 1061.49 34.808C1062.91 34.808 1063.98 35.3947 1064.72 36.568V31.8ZM1059.33 41.256C1059.93 41.864 1060.68 42.168 1061.57 42.168C1062.45 42.168 1063.2 41.864 1063.81 41.256C1064.41 40.6373 1064.72 39.8853 1064.72 39C1064.72 38.1147 1064.41 37.368 1063.81 36.76C1063.2 36.1413 1062.45 35.832 1061.57 35.832C1060.68 35.832 1059.93 36.1413 1059.33 36.76C1058.72 37.368 1058.41 38.1147 1058.41 39C1058.41 39.8853 1058.72 40.6373 1059.33 41.256ZM1071.71 34.808C1072.89 34.808 1073.85 35.2293 1074.57 36.072C1075.31 36.904 1075.67 37.8907 1075.67 39.032C1075.67 39.1493 1075.66 39.3147 1075.64 39.528H1068.62C1068.73 40.3387 1069.07 40.984 1069.64 41.464C1070.23 41.9333 1070.95 42.168 1071.8 42.168C1072.41 42.168 1072.93 42.0453 1073.37 41.8C1073.82 41.544 1074.15 41.2133 1074.38 40.808L1075.31 41.352C1074.95 41.9173 1074.47 42.3653 1073.87 42.696C1073.26 43.0267 1072.57 43.192 1071.79 43.192C1070.53 43.192 1069.5 42.7973 1068.71 42.008C1067.93 41.2187 1067.53 40.216 1067.53 39C1067.53 37.8053 1067.92 36.808 1068.7 36.008C1069.48 35.208 1070.48 34.808 1071.71 34.808ZM1071.71 35.832C1070.87 35.832 1070.18 36.0827 1069.61 36.584C1069.06 37.0747 1068.73 37.7147 1068.62 38.504H1074.59C1074.48 37.6613 1074.15 37.0053 1073.61 36.536C1073.07 36.0667 1072.43 35.832 1071.71 35.832ZM1078.06 42.904C1077.89 43.0747 1077.68 43.16 1077.43 43.16C1077.19 43.16 1076.98 43.0747 1076.81 42.904C1076.64 42.7333 1076.55 42.5253 1076.55 42.28C1076.55 42.0347 1076.64 41.8267 1076.81 41.656C1076.98 41.4853 1077.19 41.4 1077.43 41.4C1077.68 41.4 1077.89 41.4853 1078.06 41.656C1078.23 41.8267 1078.31 42.0347 1078.31 42.28C1078.31 42.5253 1078.23 42.7333 1078.06 42.904ZM1081.46 36.328C1081.95 35.3573 1082.79 34.872 1083.99 34.872V35.896C1083.26 35.896 1082.66 36.1093 1082.18 36.536C1081.7 36.9627 1081.46 37.6347 1081.46 38.552V43H1080.4V35H1081.46V36.328ZM1091.06 35H1092.12V43H1091.06V41.752C1090.47 42.712 1089.57 43.192 1088.38 43.192C1087.41 43.192 1086.64 42.8987 1086.07 42.312C1085.52 41.7147 1085.24 40.9147 1085.24 39.912V35H1086.3V39.912C1086.3 40.6267 1086.48 41.1813 1086.86 41.576C1087.24 41.9707 1087.78 42.168 1088.47 42.168C1089.24 42.168 1089.86 41.928 1090.34 41.448C1090.82 40.9573 1091.06 40.2053 1091.06 39.192V35Z" fill="#22253B"/>
<path d="M1006.68 10.888V11.912H1003.83V14.76H1002.81V11.912H999.96V10.888H1002.81V8.04H1003.83V10.888H1006.68ZM1006.68 5.8H1013.56V6.856L1009.34 17H1008.17L1012.39 6.856H1006.68V5.8ZM1020.92 18.6C1019.75 16.2533 1019.16 13.8533 1019.16 11.4C1019.16 8.94667 1019.75 6.54667 1020.92 4.2H1021.98C1020.81 6.54667 1020.22 8.94667 1020.22 11.4C1020.22 13.8533 1020.81 16.2533 1021.98 18.6H1020.92ZM1030.45 9.304C1030.45 10.1467 1030.22 10.8933 1029.77 11.544L1026.1 17H1024.84L1027.59 12.904C1027.3 12.968 1027 13 1026.69 13C1025.59 13 1024.69 12.6587 1023.99 11.976C1023.29 11.2827 1022.93 10.392 1022.93 9.304C1022.93 8.216 1023.29 7.33067 1023.99 6.648C1024.69 5.95467 1025.59 5.608 1026.69 5.608C1027.79 5.608 1028.69 5.95467 1029.4 6.648C1030.1 7.33067 1030.45 8.216 1030.45 9.304ZM1024.77 7.416C1024.29 7.896 1024.05 8.52533 1024.05 9.304C1024.05 10.0827 1024.29 10.712 1024.77 11.192C1025.26 11.672 1025.9 11.912 1026.69 11.912C1027.48 11.912 1028.12 11.672 1028.6 11.192C1029.09 10.712 1029.33 10.0827 1029.33 9.304C1029.33 8.52533 1029.09 7.896 1028.6 7.416C1028.12 6.936 1027.48 6.696 1026.69 6.696C1025.9 6.696 1025.26 6.936 1024.77 7.416ZM1038.94 9.304C1038.94 10.1467 1038.71 10.8933 1038.25 11.544L1034.59 17H1033.32L1036.07 12.904C1035.79 12.968 1035.49 13 1035.18 13C1034.08 13 1033.18 12.6587 1032.47 11.976C1031.77 11.2827 1031.42 10.392 1031.42 9.304C1031.42 8.216 1031.77 7.33067 1032.47 6.648C1033.18 5.95467 1034.08 5.608 1035.18 5.608C1036.28 5.608 1037.18 5.95467 1037.88 6.648C1038.59 7.33067 1038.94 8.216 1038.94 9.304ZM1033.26 7.416C1032.78 7.896 1032.54 8.52533 1032.54 9.304C1032.54 10.0827 1032.78 10.712 1033.26 11.192C1033.75 11.672 1034.39 11.912 1035.18 11.912C1035.97 11.912 1036.6 11.672 1037.08 11.192C1037.57 10.712 1037.82 10.0827 1037.82 9.304C1037.82 8.52533 1037.57 7.896 1037.08 7.416C1036.6 6.936 1035.97 6.696 1035.18 6.696C1034.39 6.696 1033.75 6.936 1033.26 7.416ZM1047.42 9.304C1047.42 10.1467 1047.19 10.8933 1046.73 11.544L1043.07 17H1041.81L1044.56 12.904C1044.27 12.968 1043.97 13 1043.66 13C1042.56 13 1041.66 12.6587 1040.96 11.976C1040.25 11.2827 1039.9 10.392 1039.9 9.304C1039.9 8.216 1040.25 7.33067 1040.96 6.648C1041.66 5.95467 1042.56 5.608 1043.66 5.608C1044.76 5.608 1045.66 5.95467 1046.37 6.648C1047.07 7.33067 1047.42 8.216 1047.42 9.304ZM1041.74 7.416C1041.26 7.896 1041.02 8.52533 1041.02 9.304C1041.02 10.0827 1041.26 10.712 1041.74 11.192C1042.23 11.672 1042.87 11.912 1043.66 11.912C1044.45 11.912 1045.09 11.672 1045.57 11.192C1046.06 10.712 1046.3 10.0827 1046.3 9.304C1046.3 8.52533 1046.06 7.896 1045.57 7.416C1045.09 6.936 1044.45 6.696 1043.66 6.696C1042.87 6.696 1042.23 6.936 1041.74 7.416ZM1049.44 18.6H1048.39C1049.56 16.2533 1050.15 13.8533 1050.15 11.4C1050.15 8.94667 1049.56 6.54667 1048.39 4.2H1049.44C1050.62 6.54667 1051.2 8.94667 1051.2 11.4C1051.2 13.8533 1050.62 16.2533 1049.44 18.6ZM1064.16 9.304C1064.16 10.1467 1063.93 10.8933 1063.47 11.544L1059.8 17H1058.54L1061.29 12.904C1061 12.968 1060.71 13 1060.4 13C1059.3 13 1058.4 12.6587 1057.69 11.976C1056.99 11.2827 1056.64 10.392 1056.64 9.304C1056.64 8.216 1056.99 7.33067 1057.69 6.648C1058.4 5.95467 1059.3 5.608 1060.4 5.608C1061.49 5.608 1062.4 5.95467 1063.1 6.648C1063.8 7.33067 1064.16 8.216 1064.16 9.304ZM1058.48 7.416C1058 7.896 1057.76 8.52533 1057.76 9.304C1057.76 10.0827 1058 10.712 1058.48 11.192C1058.97 11.672 1059.61 11.912 1060.4 11.912C1061.19 11.912 1061.82 11.672 1062.3 11.192C1062.79 10.712 1063.04 10.0827 1063.04 9.304C1063.04 8.52533 1062.79 7.896 1062.3 7.416C1061.82 6.936 1061.19 6.696 1060.4 6.696C1059.61 6.696 1058.97 6.936 1058.48 7.416ZM1072.64 9.304C1072.64 10.1467 1072.41 10.8933 1071.95 11.544L1068.29 17H1067.02L1069.78 12.904C1069.49 12.968 1069.19 13 1068.88 13C1067.78 13 1066.88 12.6587 1066.18 11.976C1065.47 11.2827 1065.12 10.392 1065.12 9.304C1065.12 8.216 1065.47 7.33067 1066.18 6.648C1066.88 5.95467 1067.78 5.608 1068.88 5.608C1069.98 5.608 1070.88 5.95467 1071.58 6.648C1072.29 7.33067 1072.64 8.216 1072.64 9.304ZM1066.96 7.416C1066.48 7.896 1066.24 8.52533 1066.24 9.304C1066.24 10.0827 1066.48 10.712 1066.96 11.192C1067.45 11.672 1068.09 11.912 1068.88 11.912C1069.67 11.912 1070.3 11.672 1070.78 11.192C1071.28 10.712 1071.52 10.0827 1071.52 9.304C1071.52 8.52533 1071.28 7.896 1070.78 7.416C1070.3 6.936 1069.67 6.696 1068.88 6.696C1068.09 6.696 1067.45 6.936 1066.96 7.416ZM1081.12 9.304C1081.12 10.1467 1080.9 10.8933 1080.44 11.544L1076.77 17H1075.51L1078.26 12.904C1077.97 12.968 1077.67 13 1077.37 13C1076.27 13 1075.37 12.6587 1074.66 11.976C1073.96 11.2827 1073.61 10.392 1073.61 9.304C1073.61 8.216 1073.96 7.33067 1074.66 6.648C1075.37 5.95467 1076.27 5.608 1077.37 5.608C1078.46 5.608 1079.37 5.95467 1080.07 6.648C1080.77 7.33067 1081.12 8.216 1081.12 9.304ZM1075.45 7.416C1074.97 7.896 1074.73 8.52533 1074.73 9.304C1074.73 10.0827 1074.97 10.712 1075.45 11.192C1075.94 11.672 1076.58 11.912 1077.37 11.912C1078.15 11.912 1078.79 11.672 1079.27 11.192C1079.76 10.712 1080.01 10.0827 1080.01 9.304C1080.01 8.52533 1079.76 7.896 1079.27 7.416C1078.79 6.936 1078.15 6.696 1077.37 6.696C1076.58 6.696 1075.94 6.936 1075.45 7.416ZM1093.61 9.304C1093.61 10.1467 1093.38 10.8933 1092.92 11.544L1089.26 17H1087.99L1090.75 12.904C1090.46 12.968 1090.16 13 1089.85 13C1088.75 13 1087.85 12.6587 1087.15 11.976C1086.44 11.2827 1086.09 10.392 1086.09 9.304C1086.09 8.216 1086.44 7.33067 1087.15 6.648C1087.85 5.95467 1088.75 5.608 1089.85 5.608C1090.95 5.608 1091.85 5.95467 1092.55 6.648C1093.26 7.33067 1093.61 8.216 1093.61 9.304ZM1087.93 7.416C1087.45 7.896 1087.21 8.52533 1087.21 9.304C1087.21 10.0827 1087.45 10.712 1087.93 11.192C1088.42 11.672 1089.06 11.912 1089.85 11.912C1090.64 11.912 1091.27 11.672 1091.75 11.192C1092.24 10.712 1092.49 10.0827 1092.49 9.304C1092.49 8.52533 1092.24 7.896 1091.75 7.416C1091.27 6.936 1090.64 6.696 1089.85 6.696C1089.06 6.696 1088.42 6.936 1087.93 7.416ZM1102.09 9.304C1102.09 10.1467 1101.86 10.8933 1101.41 11.544L1097.74 17H1096.48L1099.23 12.904C1098.94 12.968 1098.64 13 1098.33 13C1097.24 13 1096.33 12.6587 1095.63 11.976C1094.93 11.2827 1094.57 10.392 1094.57 9.304C1094.57 8.216 1094.93 7.33067 1095.63 6.648C1096.33 5.95467 1097.24 5.608 1098.33 5.608C1099.43 5.608 1100.33 5.95467 1101.04 6.648C1101.74 7.33067 1102.09 8.216 1102.09 9.304ZM1096.41 7.416C1095.93 7.896 1095.69 8.52533 1095.69 9.304C1095.69 10.0827 1095.93 10.712 1096.41 11.192C1096.9 11.672 1097.54 11.912 1098.33 11.912C1099.12 11.912 1099.76 11.672 1100.24 11.192C1100.73 10.712 1100.97 10.0827 1100.97 9.304C1100.97 8.52533 1100.73 7.896 1100.24 7.416C1099.76 6.936 1099.12 6.696 1098.33 6.696C1097.54 6.696 1096.9 6.936 1096.41 7.416ZM1114.58 9.304C1114.58 10.1467 1114.35 10.8933 1113.89 11.544L1110.23 17H1108.96L1111.71 12.904C1111.43 12.968 1111.13 13 1110.82 13C1109.72 13 1108.82 12.6587 1108.11 11.976C1107.41 11.2827 1107.06 10.392 1107.06 9.304C1107.06 8.216 1107.41 7.33067 1108.11 6.648C1108.82 5.95467 1109.72 5.608 1110.82 5.608C1111.92 5.608 1112.82 5.95467 1113.52 6.648C1114.23 7.33067 1114.58 8.216 1114.58 9.304ZM1108.9 7.416C1108.42 7.896 1108.18 8.52533 1108.18 9.304C1108.18 10.0827 1108.42 10.712 1108.9 11.192C1109.39 11.672 1110.03 11.912 1110.82 11.912C1111.61 11.912 1112.24 11.672 1112.72 11.192C1113.21 10.712 1113.46 10.0827 1113.46 9.304C1113.46 8.52533 1113.21 7.896 1112.72 7.416C1112.24 6.936 1111.61 6.696 1110.82 6.696C1110.03 6.696 1109.39 6.936 1108.9 7.416ZM1123.06 9.304C1123.06 10.1467 1122.83 10.8933 1122.37 11.544L1118.71 17H1117.45L1120.2 12.904C1119.91 12.968 1119.61 13 1119.3 13C1118.2 13 1117.3 12.6587 1116.6 11.976C1115.89 11.2827 1115.54 10.392 1115.54 9.304C1115.54 8.216 1115.89 7.33067 1116.6 6.648C1117.3 5.95467 1118.2 5.608 1119.3 5.608C1120.4 5.608 1121.3 5.95467 1122.01 6.648C1122.71 7.33067 1123.06 8.216 1123.06 9.304ZM1117.38 7.416C1116.9 7.896 1116.66 8.52533 1116.66 9.304C1116.66 10.0827 1116.9 10.712 1117.38 11.192C1117.87 11.672 1118.51 11.912 1119.3 11.912C1120.09 11.912 1120.73 11.672 1121.21 11.192C1121.7 10.712 1121.94 10.0827 1121.94 9.304C1121.94 8.52533 1121.7 7.896 1121.21 7.416C1120.73 6.936 1120.09 6.696 1119.3 6.696C1118.51 6.696 1117.87 6.936 1117.38 7.416Z" fill="#38BFF2"/>
<path d="M118.8 5.8V15.944H114.16V5.8H113.04V15.944H108.4V5.8H107.28V17H119.92V5.8H118.8ZM128.787 17L124.499 12.84L128.627 9H127.187L123.379 12.536V9H122.323V17H123.379V13.144L127.379 17H128.787ZM133.161 17.192C135.497 17.192 137.369 15.368 137.369 13C137.369 10.632 135.497 8.808 133.161 8.808C130.825 8.808 128.953 10.632 128.953 13C128.953 15.368 130.825 17.192 133.161 17.192ZM133.161 16.168C131.385 16.168 130.009 14.776 130.009 13C130.009 11.224 131.385 9.832 133.161 9.832C134.937 9.832 136.312 11.224 136.312 13C136.312 14.776 134.937 16.168 133.161 16.168ZM145.383 9H139.655V13.592C139.655 15.624 138.999 16.12 137.863 16.008V17C139.463 17.112 140.711 16.44 140.711 13.592V10.024H144.327V17H145.383V9ZM154.5 9V10.568C153.828 9.496 152.692 8.808 151.268 8.808C149.012 8.808 147.14 10.632 147.14 13C147.14 15.368 149.012 17.192 151.268 17.192C152.692 17.192 153.828 16.504 154.5 15.432V17H155.556V9H154.5ZM151.348 16.168C149.572 16.168 148.196 14.776 148.196 13C148.196 11.224 149.572 9.832 151.348 9.832C153.124 9.832 154.5 11.224 154.5 13C154.5 14.776 153.124 16.168 151.348 16.168ZM113.84 28H107.12V36H108.176V29.024H112.784V36H113.84V28ZM120.361 27.808C118.937 27.808 117.801 28.496 117.129 29.568V28H116.073V39.2H117.129V34.432C117.801 35.504 118.937 36.192 120.361 36.192C122.617 36.192 124.489 34.368 124.489 32C124.489 29.632 122.617 27.808 120.361 27.808ZM120.281 35.168C118.505 35.168 117.129 33.776 117.129 32C117.129 30.224 118.505 28.832 120.281 28.832C122.057 28.832 123.433 30.224 123.433 32C123.433 33.776 122.057 35.168 120.281 35.168ZM129.973 36.192C132.309 36.192 134.181 34.368 134.181 32C134.181 29.632 132.309 27.808 129.973 27.808C127.637 27.808 125.765 29.632 125.765 32C125.765 34.368 127.637 36.192 129.973 36.192ZM129.973 35.168C128.197 35.168 126.821 33.776 126.821 32C126.821 30.224 128.197 28.832 129.973 28.832C131.749 28.832 133.125 30.224 133.125 32C133.125 33.776 131.749 35.168 129.973 35.168ZM141.068 28H135.948V36H137.004V29.024H141.068V28ZM146.642 27.808C145.218 27.808 144.082 28.496 143.41 29.568V28H142.354V39.2H143.41V34.432C144.082 35.504 145.218 36.192 146.642 36.192C148.898 36.192 150.77 34.368 150.77 32C150.77 29.632 148.898 27.808 146.642 27.808ZM146.562 35.168C144.786 35.168 143.41 33.776 143.41 32C143.41 30.224 144.786 28.832 146.562 28.832C148.338 28.832 149.714 30.224 149.714 32C149.714 33.776 148.338 35.168 146.562 35.168ZM159.406 28V29.568C158.734 28.496 157.598 27.808 156.174 27.808C153.918 27.808 152.046 29.632 152.046 32C152.046 34.368 153.918 36.192 156.174 36.192C157.598 36.192 158.734 35.504 159.406 34.432V36H160.462V28H159.406ZM156.254 35.168C154.478 35.168 153.102 33.776 153.102 32C153.102 30.224 154.478 28.832 156.254 28.832C158.03 28.832 159.406 30.224 159.406 32C159.406 33.776 158.03 35.168 156.254 35.168ZM170.538 28H169.322L166.618 32.384L163.914 28H162.698V36H163.754V29.616L166.554 34.16H166.682L169.482 29.616V36H170.538V28ZM180.616 28H179.4L176.696 32.384L173.992 28H172.776V36H173.832V29.616L176.632 34.16H176.76L179.56 29.616V36H180.616V28ZM188.678 28L183.91 34.16V28H182.854V36H183.75L188.518 29.84V36H189.574V28H188.678ZM196.096 27.808C194.672 27.808 193.536 28.496 192.864 29.568V28H191.808V39.2H192.864V34.432C193.536 35.504 194.672 36.192 196.096 36.192C198.352 36.192 200.224 34.368 200.224 32C200.224 29.632 198.352 27.808 196.096 27.808ZM196.016 35.168C194.24 35.168 192.864 33.776 192.864 32C192.864 30.224 194.24 28.832 196.016 28.832C197.792 28.832 199.168 30.224 199.168 32C199.168 33.776 197.792 35.168 196.016 35.168ZM205.707 36.192C208.043 36.192 209.915 34.368 209.915 32C209.915 29.632 208.043 27.808 205.707 27.808C203.371 27.808 201.499 29.632 201.499 32C201.499 34.368 203.371 36.192 205.707 36.192ZM205.707 35.168C203.931 35.168 202.555 33.776 202.555 32C202.555 30.224 203.931 28.832 205.707 28.832C207.483 28.832 208.859 30.224 208.859 32C208.859 33.776 207.483 35.168 205.707 35.168ZM216.771 31.888C217.395 31.52 217.699 30.912 217.699 30.144C217.699 28.928 216.851 28 215.251 28H211.683V36H215.571C217.267 36 218.083 34.992 218.083 33.76C218.083 32.896 217.635 32.208 216.771 31.888ZM215.251 29.024C216.163 29.024 216.643 29.472 216.643 30.208C216.643 31.008 216.179 31.456 215.251 31.456H212.739V29.024H215.251ZM215.571 34.976H212.739V32.48H215.571C216.515 32.48 217.027 32.96 217.027 33.696C217.027 34.496 216.531 34.976 215.571 34.976ZM226.562 28V29.568C225.891 28.496 224.755 27.808 223.331 27.808C221.075 27.808 219.203 29.632 219.203 32C219.203 34.368 221.075 36.192 223.331 36.192C224.755 36.192 225.891 35.504 226.562 34.432V36H227.619V28H226.562ZM223.411 35.168C221.635 35.168 220.259 33.776 220.259 32C220.259 30.224 221.635 28.832 223.411 28.832C225.187 28.832 226.562 30.224 226.562 32C226.562 33.776 225.187 35.168 223.411 35.168ZM235.518 28V31.488H230.91V28H229.854V36H230.91V32.512H235.518V36H236.574V28H235.518ZM244.632 28L239.864 34.16V28H238.808V36H239.704L244.472 29.84V36H245.528V28H244.632ZM253.521 28H250.273C248.817 28 247.601 29.008 247.601 30.48C247.601 31.792 248.561 32.704 249.809 32.896L247.281 36H248.625L251.089 32.928H252.465V36H253.521V28ZM250.273 31.936C249.409 31.936 248.657 31.392 248.657 30.48C248.657 29.568 249.409 29.024 250.273 29.024H252.465V31.936H250.273Z" fill="#8E8E8E"/>
<line y1="227.5" x2="1160" y2="227.5" stroke="#D8D8D8"/>
<g clip-path="url(#clip0_22178_49)">
<path d="M38.8879 97.4371C38.8879 107.067 31.0809 114.874 21.4507 114.874C11.8205 114.874 4.01367 107.067 4.01367 97.4371C4.01367 87.8068 11.8205 80 21.4507 80C31.0809 80 38.8879 87.8068 38.8879 97.4371Z" fill="#22253B"/>
<path d="M25.4009 88.6863H17.2122C14.5471 88.6863 12.3789 90.8544 12.3789 93.5195V101.708C12.3789 104.373 14.5471 106.542 17.2122 106.542H25.4011C28.0659 106.542 30.2341 104.373 30.2341 101.708V93.5195C30.2341 90.8544 28.0659 88.6863 25.4009 88.6863ZM21.3065 102.496C18.6145 102.496 16.4244 100.306 16.4244 97.6139C16.4244 94.9218 18.6145 92.7317 21.3065 92.7317C23.9986 92.7317 26.1888 94.9218 26.1888 97.6139C26.1888 100.306 23.9986 102.496 21.3065 102.496ZM26.3054 93.8831C25.5099 93.8831 24.8628 93.236 24.8628 92.4405C24.8628 91.6449 25.5099 90.9977 26.3054 90.9977C27.101 90.9977 27.7481 91.6449 27.7481 92.4405C27.7481 93.236 27.101 93.8831 26.3054 93.8831Z" fill="white"/>
<path d="M21.3061 93.7788C19.1913 93.7788 17.4707 95.4993 17.4707 97.6142C17.4707 99.7289 19.1913 101.45 21.3061 101.45C23.421 101.45 25.1414 99.7289 25.1414 97.6142C25.1414 95.4993 23.421 93.7788 21.3061 93.7788Z" fill="white"/>
<path d="M26.306 92.0444C26.0878 92.0444 25.9102 92.2221 25.9102 92.4403C25.9102 92.6585 26.0878 92.8362 26.306 92.8362C26.5243 92.8362 26.7021 92.6587 26.7021 92.4403C26.7021 92.2219 26.5243 92.0444 26.306 92.0444Z" fill="white"/>
</g>
<g clip-path="url(#clip1_22178_49)">
<path d="M89.8741 97.4371C89.8741 107.067 82.0673 114.874 72.4371 114.874C62.8068 114.874 55 107.067 55 97.4371C55 87.8068 62.8068 80 72.4371 80C82.0673 80 89.8741 87.8068 89.8741 97.4371Z" fill="#22253B"/>
<path fill-rule="evenodd" clip-rule="evenodd" d="M71.8501 102.958H72.9654C72.9654 102.958 73.3023 102.921 73.4743 102.736C73.6326 102.566 73.6276 102.247 73.6276 102.247C73.6276 102.247 73.6058 100.755 74.3004 100.535C74.9851 100.319 75.8644 101.978 76.7964 102.616C77.501 103.098 78.0364 102.993 78.0364 102.993L80.5285 102.958C80.5285 102.958 81.8319 102.878 81.2138 101.856C81.1633 101.772 80.8539 101.099 79.3612 99.7175C77.7987 98.2712 78.0079 98.5051 79.89 96.0032C81.0364 94.4795 81.4946 93.5493 81.3514 93.1509C81.2148 92.7714 80.3718 92.8717 80.3718 92.8717L77.5662 92.8891C77.5662 92.8891 77.3582 92.8609 77.2039 92.9528C77.0532 93.043 76.9561 93.2532 76.9561 93.2532C76.9561 93.2532 76.5121 94.4323 75.9198 95.435C74.6705 97.5509 74.1709 97.6626 73.9668 97.5312C73.4918 97.225 73.6104 96.3011 73.6104 95.6447C73.6104 93.5943 73.9222 92.7393 73.0032 92.518C72.6982 92.4445 72.4737 92.396 71.6938 92.3882C70.6927 92.3778 69.8453 92.3912 69.3655 92.6256C69.0464 92.7815 68.8001 93.1289 68.9501 93.1489C69.1355 93.1736 69.5555 93.2618 69.7782 93.5642C70.0657 93.9543 70.0556 94.8305 70.0556 94.8305C70.0556 94.8305 70.2207 97.2442 69.6698 97.5441C69.2916 97.7497 68.7728 97.3298 67.6589 95.4103C67.0882 94.427 66.6573 93.3401 66.6573 93.3401C66.6573 93.3401 66.5743 93.137 66.4261 93.0284C66.2462 92.8967 65.9949 92.8548 65.9949 92.8548L63.3288 92.8722C63.3288 92.8722 62.9285 92.8833 62.7816 93.0569C62.6509 93.2113 62.7712 93.5306 62.7712 93.5306C62.7712 93.5306 64.8585 98.401 67.222 100.856C69.3891 103.106 71.8501 102.958 71.8501 102.958Z" fill="white"/>
</g>
<g clip-path="url(#clip2_22178_49)">
<path d="M140.888 97.4371C140.888 107.067 133.081 114.874 123.451 114.874C113.821 114.874 106.014 107.067 106.014 97.4371C106.014 87.8068 113.821 80 123.451 80C133.081 80 140.888 87.8068 140.888 97.4371Z" fill="#22253B"/>
<path d="M125.219 92.9132H127.245V89.9734H124.864V89.984C121.978 90.0844 121.386 91.6778 121.334 93.3514H121.328V94.8194H119.363V97.6985H121.328V105.416H124.29V97.6985H126.716L127.184 94.8194H124.291V93.9325C124.291 93.3669 124.674 92.9132 125.219 92.9132Z" fill="white"/>
</g>
<g clip-path="url(#clip3_22178_49)">
<path d="M191.94 97.4632C191.94 107.108 184.121 114.926 174.477 114.926C164.832 114.926 157.014 107.108 157.014 97.4632C157.014 87.8185 164.832 80 174.477 80C184.121 80 191.94 87.8185 191.94 97.4632Z" fill="#22253B"/>
<path d="M183.474 91.6698C182.764 90.8264 181.455 90.4824 178.953 90.4824H169.873C167.314 90.4824 165.982 90.8486 165.275 91.7465C164.586 92.6219 164.586 93.9118 164.586 95.697V99.0996C164.586 102.558 165.404 104.314 169.873 104.314H178.953C181.122 104.314 182.325 104.011 183.102 103.266C183.9 102.503 184.24 101.257 184.24 99.0996V95.697C184.24 93.8144 184.187 92.5169 183.474 91.6698ZM177.204 97.8681L173.08 100.023C172.988 100.071 172.887 100.095 172.787 100.095C172.673 100.095 172.559 100.065 172.458 100.003C172.269 99.8886 172.153 99.683 172.153 99.4612V95.165C172.153 94.9436 172.268 94.7382 172.458 94.6232C172.647 94.5081 172.883 94.5003 173.079 94.6024L177.202 96.7435C177.412 96.8524 177.544 97.069 177.544 97.3053C177.545 97.5418 177.413 97.7587 177.204 97.8681Z" fill="white"/>
</g>
<path d="M718.175 7.9V12.307C717.356 12.71 716.602 12.892 715.705 12.892C714.444 12.892 713.755 12.177 713.755 11.15V7.9H712.845V11.15C712.845 12.645 713.937 13.75 715.705 13.75C716.602 13.75 717.356 13.568 718.175 13.165V17H719.085V7.9H718.175ZM724.038 10.344C722.023 10.344 720.645 11.839 720.645 13.75C720.645 15.713 722.049 17.156 724.103 17.156C725.416 17.156 726.417 16.545 726.963 15.661L726.209 15.219C725.858 15.843 725.143 16.324 724.116 16.324C722.738 16.324 721.711 15.505 721.529 14.179H727.236C727.249 14.049 727.262 13.906 727.262 13.776C727.262 11.995 726.027 10.344 724.038 10.344ZM724.038 11.176C725.156 11.176 726.196 11.917 726.378 13.347H721.529C721.698 12.073 722.673 11.176 724.038 11.176ZM734.997 10.5H734.009L731.812 14.062L729.615 10.5H728.627V17H729.485V11.813L731.76 15.505H731.864L734.139 11.813V17H734.997V10.5ZM741.495 10.5L739.389 15.947L736.945 10.5H736.035L738.947 17.039L738.778 17.442C738.427 18.287 737.842 18.885 736.997 18.794V19.6C738.167 19.691 739.129 18.846 739.623 17.598L742.405 10.5H741.495ZM750.826 13.659C751.333 13.36 751.58 12.866 751.58 12.242C751.58 11.254 750.891 10.5 749.591 10.5H746.692V17H749.851C751.229 17 751.892 16.181 751.892 15.18C751.892 14.478 751.528 13.919 750.826 13.659ZM749.591 11.332C750.332 11.332 750.722 11.696 750.722 12.294C750.722 12.944 750.345 13.308 749.591 13.308H747.55V11.332H749.591ZM749.851 16.168H747.55V14.14H749.851C750.618 14.14 751.034 14.53 751.034 15.128C751.034 15.778 750.631 16.168 749.851 16.168ZM755.831 12.97H754.05V10.5H753.192V17H755.831C757.014 17 758.002 16.181 758.002 14.985C758.002 13.789 757.014 12.97 755.831 12.97ZM758.912 10.5V17H759.77V10.5H758.912ZM755.831 16.168H754.05V13.802H755.831C756.533 13.802 757.144 14.244 757.144 14.985C757.144 15.726 756.533 16.168 755.831 16.168ZM769.449 10.5V13.334H765.705V10.5H764.847V17H765.705V14.166H769.449V17H770.307V10.5H769.449ZM777.711 10.5V11.774C777.165 10.903 776.242 10.344 775.085 10.344C773.252 10.344 771.731 11.826 771.731 13.75C771.731 15.674 773.252 17.156 775.085 17.156C776.242 17.156 777.165 16.597 777.711 15.726V17H778.569V10.5H777.711ZM775.15 16.324C773.707 16.324 772.589 15.193 772.589 13.75C772.589 12.307 773.707 11.176 775.15 11.176C776.593 11.176 777.711 12.307 777.711 13.75C777.711 15.193 776.593 16.324 775.15 16.324ZM785.066 10.5L782.96 15.947L780.516 10.5H779.606L782.518 17.039L782.349 17.442C781.998 18.287 781.413 18.885 780.568 18.794V19.6C781.738 19.691 782.7 18.846 783.194 17.598L785.976 10.5H785.066ZM791.225 10.5V13.737C790.653 13.984 789.99 14.114 789.34 14.114C788.222 14.114 787.611 13.711 787.611 12.58V10.5H786.753V12.58C786.753 14.14 787.689 14.92 789.366 14.92C790.042 14.92 790.718 14.79 791.225 14.53V17H792.083V10.5H791.225ZM798.638 10.5L794.764 15.505V10.5H793.906V17H794.634L798.508 11.995V17H799.366V10.5H798.638ZM805.861 10.5H800.401V11.332H802.702V17H803.56V11.332H805.861V10.5ZM809.655 10.344C807.64 10.344 806.262 11.839 806.262 13.75C806.262 15.713 807.666 17.156 809.72 17.156C811.033 17.156 812.034 16.545 812.58 15.661L811.826 15.219C811.475 15.843 810.76 16.324 809.733 16.324C808.355 16.324 807.328 15.505 807.146 14.179H812.853C812.866 14.049 812.879 13.906 812.879 13.776C812.879 11.995 811.644 10.344 809.655 10.344ZM809.655 11.176C810.773 11.176 811.813 11.917 811.995 13.347H807.146C807.315 12.073 808.29 11.176 809.655 11.176ZM817.273 17.156C818.547 17.156 819.652 16.493 820.185 15.466L819.47 15.05C819.054 15.804 818.261 16.324 817.273 16.324C815.83 16.324 814.712 15.193 814.712 13.75C814.712 12.307 815.83 11.176 817.273 11.176C818.248 11.176 819.067 11.683 819.418 12.45L820.12 12.047C819.652 11.02 818.56 10.344 817.273 10.344C815.31 10.344 813.854 11.826 813.854 13.75C813.854 15.674 815.31 17.156 817.273 17.156ZM824.056 12.97H822.275V10.5H821.417V17H824.056C825.239 17 826.227 16.181 826.227 14.985C826.227 13.789 825.239 12.97 824.056 12.97ZM824.056 16.168H822.275V13.802H824.056C824.758 13.802 825.369 14.244 825.369 14.985C825.369 15.726 824.758 16.168 824.056 16.168Z" fill="#22253B"/>
<path d="M719.54 46.9H713.04V56H713.95V47.758H718.63V56H719.54V46.9ZM724.976 49.344C723.819 49.344 722.896 49.903 722.35 50.774V49.5H721.492V58.6H722.35V54.726C722.896 55.597 723.819 56.156 724.976 56.156C726.809 56.156 728.33 54.674 728.33 52.75C728.33 50.826 726.809 49.344 724.976 49.344ZM724.911 55.324C723.468 55.324 722.35 54.193 722.35 52.75C722.35 51.307 723.468 50.176 724.911 50.176C726.354 50.176 727.472 51.307 727.472 52.75C727.472 54.193 726.354 55.324 724.911 55.324ZM732.786 56.156C734.684 56.156 736.205 54.674 736.205 52.75C736.205 50.826 734.684 49.344 732.786 49.344C730.888 49.344 729.367 50.826 729.367 52.75C729.367 54.674 730.888 56.156 732.786 56.156ZM732.786 55.324C731.343 55.324 730.225 54.193 730.225 52.75C730.225 51.307 731.343 50.176 732.786 50.176C734.229 50.176 735.347 51.307 735.347 52.75C735.347 54.193 734.229 55.324 732.786 55.324ZM742.97 55.168V49.5H742.112V55.168H738.498V49.5H737.64V56H743.152V57.742H744.01V55.168H742.97ZM748.058 49.344C746.043 49.344 744.665 50.839 744.665 52.75C744.665 54.713 746.069 56.156 748.123 56.156C749.436 56.156 750.437 55.545 750.983 54.661L750.229 54.219C749.878 54.843 749.163 55.324 748.136 55.324C746.758 55.324 745.731 54.505 745.549 53.179H751.256C751.269 53.049 751.282 52.906 751.282 52.776C751.282 50.995 750.047 49.344 748.058 49.344ZM748.058 50.176C749.176 50.176 750.216 50.917 750.398 52.347H745.549C745.718 51.073 746.693 50.176 748.058 50.176ZM755.675 56.156C756.949 56.156 758.054 55.493 758.587 54.466L757.872 54.05C757.456 54.804 756.663 55.324 755.675 55.324C754.232 55.324 753.114 54.193 753.114 52.75C753.114 51.307 754.232 50.176 755.675 50.176C756.65 50.176 757.469 50.683 757.82 51.45L758.522 51.047C758.054 50.02 756.962 49.344 755.675 49.344C753.712 49.344 752.256 50.826 752.256 52.75C752.256 54.674 753.712 56.156 755.675 56.156ZM762.785 56.156C764.059 56.156 765.164 55.493 765.697 54.466L764.982 54.05C764.566 54.804 763.773 55.324 762.785 55.324C761.342 55.324 760.224 54.193 760.224 52.75C760.224 51.307 761.342 50.176 762.785 50.176C763.76 50.176 764.579 50.683 764.93 51.45L765.632 51.047C765.164 50.02 764.072 49.344 762.785 49.344C760.822 49.344 759.366 50.826 759.366 52.75C759.366 54.674 760.822 56.156 762.785 56.156ZM773.208 56.156C775.106 56.156 776.627 54.674 776.627 52.75C776.627 50.826 775.106 49.344 773.208 49.344C771.31 49.344 769.789 50.826 769.789 52.75C769.789 54.674 771.31 56.156 773.208 56.156ZM773.208 55.324C771.765 55.324 770.647 54.193 770.647 52.75C770.647 51.307 771.765 50.176 773.208 50.176C774.651 50.176 775.769 51.307 775.769 52.75C775.769 54.193 774.651 55.324 773.208 55.324ZM780.948 56.156C782.781 56.156 784.133 54.869 784.133 53.114C784.133 51.346 782.859 50.085 781.13 50.085C780.389 50.085 779.323 50.371 778.673 51.229C778.92 50.319 779.414 49.838 780.623 49.318C781.897 48.759 783.249 48.395 783.457 47.095L782.781 46.705C782.625 47.81 781.52 47.992 780.168 48.642C778.062 49.656 777.672 50.722 777.672 52.815C777.672 54.817 779.115 56.156 780.948 56.156ZM780.948 55.298C779.622 55.298 778.582 54.362 778.582 53.036C778.582 51.671 779.882 50.917 781.013 50.917C782.391 50.917 783.275 51.84 783.275 53.114C783.275 54.375 782.313 55.298 780.948 55.298ZM789.864 49.5L787.758 54.947L785.314 49.5H784.404L787.316 56.039L787.147 56.442C786.796 57.287 786.211 57.885 785.366 57.794V58.6C786.536 58.691 787.498 57.846 787.992 56.598L790.774 49.5H789.864ZM796.023 49.5V52.737C795.451 52.984 794.788 53.114 794.138 53.114C793.02 53.114 792.409 52.711 792.409 51.58V49.5H791.551V51.58C791.551 53.14 792.487 53.92 794.164 53.92C794.84 53.92 795.516 53.79 796.023 53.53V56H796.881V49.5H796.023ZM801.708 49.344C799.693 49.344 798.315 50.839 798.315 52.75C798.315 54.713 799.719 56.156 801.773 56.156C803.086 56.156 804.087 55.545 804.633 54.661L803.879 54.219C803.528 54.843 802.813 55.324 801.786 55.324C800.408 55.324 799.381 54.505 799.199 53.179H804.906C804.919 53.049 804.932 52.906 804.932 52.776C804.932 50.995 803.697 49.344 801.708 49.344ZM801.708 50.176C802.826 50.176 803.866 50.917 804.048 52.347H799.199C799.368 51.073 800.343 50.176 801.708 50.176ZM810.899 49.5V52.334H807.155V49.5H806.297V56H807.155V53.166H810.899V56H811.757V49.5H810.899ZM818.303 49.5L814.429 54.505V49.5H813.571V56H814.299L818.173 50.995V56H819.031V49.5H818.303ZM825.526 49.5H822.887C821.704 49.5 820.716 50.319 820.716 51.515C820.716 52.581 821.496 53.322 822.51 53.478L820.456 56H821.548L823.55 53.504H824.668V56H825.526V49.5ZM822.887 52.698C822.185 52.698 821.574 52.256 821.574 51.515C821.574 50.774 822.185 50.332 822.887 50.332H824.668V52.698H822.887Z" fill="#22253B"/>
<path d="M717.291 95.156C718.994 95.156 720.489 94.259 721.23 92.907L720.424 92.452C719.865 93.544 718.656 94.272 717.291 94.272C714.99 94.272 713.43 92.569 713.43 90.45C713.43 88.331 714.99 86.628 717.291 86.628C718.656 86.628 719.865 87.356 720.424 88.448L721.23 87.98C720.476 86.628 718.981 85.744 717.291 85.744C714.496 85.744 712.52 87.85 712.52 90.45C712.52 93.05 714.496 95.156 717.291 95.156ZM727.277 88.5H721.817V89.332H724.118V95H724.976V89.332H727.277V88.5ZM731.097 95.156C732.995 95.156 734.516 93.674 734.516 91.75C734.516 89.826 732.995 88.344 731.097 88.344C729.199 88.344 727.678 89.826 727.678 91.75C727.678 93.674 729.199 95.156 731.097 95.156ZM731.097 94.324C729.654 94.324 728.536 93.193 728.536 91.75C728.536 90.307 729.654 89.176 731.097 89.176C732.54 89.176 733.658 90.307 733.658 91.75C733.658 93.193 732.54 94.324 731.097 94.324ZM740.684 88.5L736.81 93.505V88.5H735.952V95H736.68L740.554 89.995V95H741.412V88.5H740.684ZM749.596 88.5H748.608L746.411 92.062L744.214 88.5H743.226V95H744.084V89.813L746.359 93.505H746.463L748.738 89.813V95H749.596V88.5ZM754.444 95.156C756.342 95.156 757.863 93.674 757.863 91.75C757.863 89.826 756.342 88.344 754.444 88.344C752.546 88.344 751.025 89.826 751.025 91.75C751.025 93.674 752.546 95.156 754.444 95.156ZM754.444 94.324C753.001 94.324 751.883 93.193 751.883 91.75C751.883 90.307 753.001 89.176 754.444 89.176C755.887 89.176 757.005 90.307 757.005 91.75C757.005 93.193 755.887 94.324 754.444 94.324ZM762.328 95.156C763.602 95.156 764.707 94.493 765.24 93.466L764.525 93.05C764.109 93.804 763.316 94.324 762.328 94.324C760.885 94.324 759.767 93.193 759.767 91.75C759.767 90.307 760.885 89.176 762.328 89.176C763.303 89.176 764.122 89.683 764.473 90.45L765.175 90.047C764.707 89.02 763.615 88.344 762.328 88.344C760.365 88.344 758.909 89.826 758.909 91.75C758.909 93.674 760.365 95.156 762.328 95.156ZM771.025 88.5H765.565V89.332H767.866V95H768.724V89.332H771.025V88.5ZM774.709 90.97H772.928V88.5H772.07V95H774.709C775.892 95 776.88 94.181 776.88 92.985C776.88 91.789 775.892 90.97 774.709 90.97ZM774.709 94.168H772.928V91.802H774.709C775.411 91.802 776.022 92.244 776.022 92.985C776.022 93.726 775.411 94.168 774.709 94.168Z" fill="#22253B"/>
<path d="M719.41 134L714.912 129.32L719.28 124.9H718.084L713.95 129.06V124.9H713.04V134H713.95V129.593L718.214 134H719.41ZM722.896 134.156C724.794 134.156 726.315 132.674 726.315 130.75C726.315 128.826 724.794 127.344 722.896 127.344C720.998 127.344 719.477 128.826 719.477 130.75C719.477 132.674 720.998 134.156 722.896 134.156ZM722.896 133.324C721.453 133.324 720.335 132.193 720.335 130.75C720.335 129.307 721.453 128.176 722.896 128.176C724.339 128.176 725.457 129.307 725.457 130.75C725.457 132.193 724.339 133.324 722.896 133.324ZM732.353 127.5V130.334H728.609V127.5H727.751V134H728.609V131.166H732.353V134H733.211V127.5H732.353ZM739.705 127.5H734.245V128.332H736.546V134H737.404V128.332H739.705V127.5ZM746.087 127.5V128.774C745.541 127.903 744.618 127.344 743.461 127.344C741.628 127.344 740.107 128.826 740.107 130.75C740.107 132.674 741.628 134.156 743.461 134.156C744.618 134.156 745.541 133.597 746.087 132.726V134H746.945V127.5H746.087ZM743.526 133.324C742.083 133.324 740.965 132.193 740.965 130.75C740.965 129.307 742.083 128.176 743.526 128.176C744.969 128.176 746.087 129.307 746.087 130.75C746.087 132.193 744.969 133.324 743.526 133.324ZM754.014 134L750.53 130.62L753.884 127.5H752.714L749.62 130.373V127.5H748.762V134H749.62V130.867L752.87 134H754.014ZM759.865 127.5H754.405V128.332H756.706V134H757.564V128.332H759.865V127.5ZM763.55 129.97H761.769V127.5H760.911V134H763.55C764.733 134 765.721 133.181 765.721 131.985C765.721 130.789 764.733 129.97 763.55 129.97ZM766.631 127.5V134H767.489V127.5H766.631ZM763.55 133.168H761.769V130.802H763.55C764.252 130.802 764.863 131.244 764.863 131.985C764.863 132.726 764.252 133.168 763.55 133.168Z" fill="#22253B"/>
<defs>
<clipPath id="clip0_22178_49">
<rect width="35" height="35" fill="white" transform="translate(4 80)"/>
</clipPath>
<clipPath id="clip1_22178_49">
<rect width="35" height="35" fill="white" transform="translate(55 80)"/>
</clipPath>
<clipPath id="clip2_22178_49">
<rect width="35" height="35" fill="white" transform="translate(106 80)"/>
</clipPath>
<clipPath id="clip3_22178_49">
<rect width="35" height="35" fill="white" transform="translate(157 80)"/>
</clipPath>
</defs>
</svg>
